<svg xmlns="http://www.w3.org/2000/svg" display="none" width="0" height="0"><symbol viewBox="0 0 24 24" id="icon--arrow-left"><title>arrow-left</title><path d="M20 11H7.8l5.6-5.6h-2.8L4 12l6.6 6.6h2.8L7.8 13H20v-2z"/></symbol><symbol viewBox="0 0 24 24" id="icon--arrow-right"><title>arrow-right</title><path d="M4 13h12.2l-5.6 5.6h2.8L20 12l-6.6-6.6h-2.8l5.6 5.6H4v2z"/></symbol><symbol viewBox="0 0 24 24" id="icon--close"><title>close</title><path d="M19 6.4L17.6 5 12 10.6 6.4 5 5 6.4l5.6 5.6L5 17.6 6.4 19l5.6-5.6 5.6 5.6 1.4-1.4-5.6-5.6z"/></symbol><symbol viewBox="0 0 24 24" id="icon--download"><title>download</title><path d="M21 5h-9.6L9.7 3.3C9.5 3.1 9.3 3 9 3H3c-1.1 0-2 .9-2 2v14c0 1.1.9 2 2 2h18c1.1 0 2-.9 2-2V7c0-1.1-.9-2-2-2zm-9 13l-5-5h3V9h4v4h3l-5 5z"/></symbol><symbol viewBox="0 0 24 24" id="icon--folder"><title>folder</title><path d="M10.4 4.1h-6c-1.1 0-2 .9-2 2v12c0 1.1.9 2 2 2h16c1.1 0 2-.9 2-2v-10c0-1.1-.9-2-2-2h-8l-2-2z"/></symbol><symbol viewBox="0 0 30 30" id="icon--menu"><title>menu</title><path d="M6 8h18v2H6zm0 6h18v2H6zm0 6h18v2H6z"/></symbol><symbol viewBox="0 0 24 24" id="icon--search"><title>search</title><path d="M15.5 14h-.8l-.3-.3c1-1.1 1.6-2.6 1.6-4.2C16 5.9 13.1 3 9.5 3S3 5.9 3 9.5 5.9 16 9.5 16c1.6 0 3.1-.6 4.2-1.6l.3.3v.8l5 5 1.5-1.5-5-5zm-6 0C7 14 5 12 5 9.5S7 5 9.5 5 14 7 14 9.5 12 14 9.5 14z"/></symbol></svg>